<svg xmlns="http://www.w3.org/2000/svg" xmlns:xlink="http://www.w3.org/1999/xlink" width="500" zoomAndPan="magnify" viewBox="0 0 375 187.499995" height="250" preserveAspectRatio="xMidYMid meet" version="1.0"><defs><g/><clipPath id="a48dbfcdb1"><path d="M 11.945312 84.507812 L 36.097656 84.507812 L 36.097656 108.664062 L 11.945312 108.664062 Z M 11.945312 84.507812 " clip-rule="nonzero"/></clipPath><clipPath id="62965ce464"><path d="M 17.179688 84.507812 L 30.863281 84.507812 C 33.753906 84.507812 36.097656 86.851562 36.097656 89.746094 L 36.097656 103.425781 C 36.097656 106.320312 33.753906 108.664062 30.863281 108.664062 L 17.179688 108.664062 C 14.289062 108.664062 11.945312 106.320312 11.945312 103.425781 L 11.945312 89.746094 C 11.945312 86.851562 14.289062 84.507812 17.179688 84.507812 " clip-rule="nonzero"/></clipPath><clipPath id="f76402aae2"><path d="M 62.964844 83.019531 L 87.117188 83.019531 L 87.117188 107.171875 L 62.964844 107.171875 Z M 62.964844 83.019531 " clip-rule="nonzero"/></clipPath><clipPath id="314c286dca"><path d="M 81.882812 107.171875 L 68.199219 107.171875 C 65.308594 107.171875 62.964844 104.828125 62.964844 101.9375 L 62.964844 88.253906 C 62.964844 85.363281 65.308594 83.019531 68.199219 83.019531 L 81.882812 83.019531 C 84.773438 83.019531 87.117188 85.363281 87.117188 88.253906 L 87.117188 101.9375 C 87.117188 104.828125 84.773438 107.171875 81.882812 107.171875 " clip-rule="nonzero"/></clipPath><clipPath id="ed4730c47e"><path d="M 42.179688 36.855469 L 78.660156 36.855469 L 78.660156 73.335938 L 42.179688 73.335938 Z M 42.179688 36.855469 " clip-rule="nonzero"/></clipPath><clipPath id="59ddaa264d"><path d="M 47.417969 36.855469 L 73.425781 36.855469 C 76.316406 36.855469 78.660156 39.199219 78.660156 42.089844 L 78.660156 68.097656 C 78.660156 70.992188 76.316406 73.335938 73.425781 73.335938 L 47.417969 73.335938 C 44.523438 73.335938 42.179688 70.992188 42.179688 68.097656 L 42.179688 42.089844 C 42.179688 39.199219 44.523438 36.855469 47.417969 36.855469 " clip-rule="nonzero"/></clipPath><clipPath id="ebb18f731e"><path d="M 19.195312 113.664062 L 55.675781 113.664062 L 55.675781 150.144531 L 19.195312 150.144531 Z M 19.195312 113.664062 " clip-rule="nonzero"/></clipPath><clipPath id="5461cac734"><path d="M 50.441406 150.144531 L 24.429688 150.144531 C 21.539062 150.144531 19.195312 147.796875 19.195312 144.90625 L 19.195312 118.898438 C 19.195312 116.007812 21.539062 113.664062 24.429688 113.664062 L 50.441406 113.664062 C 53.332031 113.664062 55.675781 116.007812 55.675781 118.898438 L 55.675781 144.90625 C 55.675781 147.796875 53.332031 150.144531 50.441406 150.144531 " clip-rule="nonzero"/></clipPath></defs><g clip-path="url(#a48dbfcdb1)"><g clip-path="url(#62965ce464)"><path fill="#2864b4" d="M 11.945312 84.507812 L 36.097656 84.507812 L 36.097656 108.664062 L 11.945312 108.664062 Z M 11.945312 84.507812 " fill-opacity="1" fill-rule="nonzero"/></g></g><g clip-path="url(#f76402aae2)"><g clip-path="url(#314c286dca)"><path fill="#2864b4" d="M 87.117188 107.171875 L 62.964844 107.171875 L 62.964844 83.019531 L 87.117188 83.019531 Z M 87.117188 107.171875 " fill-opacity="1" fill-rule="nonzero"/></g></g><g clip-path="url(#ed4730c47e)"><g clip-path="url(#59ddaa264d)"><path fill="#2864b4" d="M 42.179688 36.855469 L 78.660156 36.855469 L 78.660156 73.335938 L 42.179688 73.335938 Z M 42.179688 36.855469 " fill-opacity="1" fill-rule="nonzero"/></g></g><g clip-path="url(#ebb18f731e)"><g clip-path="url(#5461cac734)"><path fill="#2864b4" d="M 55.675781 150.144531 L 19.195312 150.144531 L 19.195312 113.664062 L 55.675781 113.664062 Z M 55.675781 150.144531 " fill-opacity="1" fill-rule="nonzero"/></g></g><path stroke-linecap="butt" transform="matrix(0.52892, -0.52892, 0.52892, 0.52892, 30.014715, 87.287234)" fill="none" stroke-linejoin="miter" d="M -0.000868608 3.001037 L 17.000179 3.001037 " stroke="#2864b4" stroke-width="6" stroke-opacity="1" stroke-miterlimit="4"/><path stroke-linecap="butt" transform="matrix(-0.525406, 0.529131, -0.530785, -0.527048, 69.847134, 103.014373)" fill="none" stroke-linejoin="miter" d="M 0.00117295 3.000486 L 20.074402 3.001006 " stroke="#2864b4" stroke-width="6" stroke-opacity="1" stroke-miterlimit="4"/><g fill="#2864b4" fill-opacity="1"><g transform="translate(101.034186, 107.453353)"><g><path d="M 27.234375 -9.328125 C 27.234375 -6.117188 26.289062 -3.757812 24.40625 -2.25 C 22.53125 -0.75 19.582031 0 15.5625 0 L 2.4375 0 L 2.4375 -31.796875 L 15.5625 -31.796875 C 19.21875 -31.796875 21.8125 -31.160156 23.34375 -29.890625 C 24.882812 -28.617188 25.65625 -26.5 25.65625 -23.53125 C 25.65625 -21.632812 25.398438 -20.1875 24.890625 -19.1875 C 24.390625 -18.195312 23.378906 -17.429688 21.859375 -16.890625 C 23.679688 -16.515625 25.03125 -15.703125 25.90625 -14.453125 C 26.789062 -13.203125 27.234375 -11.492188 27.234375 -9.328125 Z M 18.40625 -22.359375 C 18.40625 -23.472656 18.191406 -24.25 17.765625 -24.6875 C 17.347656 -25.125 16.613281 -25.34375 15.5625 -25.34375 L 10.296875 -25.34375 L 10.296875 -18.90625 L 15.5625 -18.90625 C 16.613281 -18.90625 17.347656 -19.164062 17.765625 -19.6875 C 18.191406 -20.21875 18.40625 -21.109375 18.40625 -22.359375 Z M 19.625 -9.84375 C 19.625 -11.050781 19.316406 -11.898438 18.703125 -12.390625 C 18.097656 -12.878906 17.050781 -13.125 15.5625 -13.125 L 10.296875 -13.125 L 10.296875 -6.6875 L 15.5625 -6.6875 C 17.050781 -6.6875 18.097656 -6.921875 18.703125 -7.390625 C 19.316406 -7.867188 19.625 -8.6875 19.625 -9.84375 Z M 19.625 -9.84375 "/></g></g></g><g fill="#2864b4" fill-opacity="1"><g transform="translate(129.270391, 107.453353)"><g><path d="M 22.71875 -7.359375 L 22.71875 0 L 2.4375 0 L 2.4375 -31.796875 L 10.296875 -31.796875 L 10.296875 -7.359375 Z M 22.71875 -7.359375 "/></g></g></g><g fill="#2864b4" fill-opacity="1"><g transform="translate(152.640033, 107.453353)"><g><path d="M 31.28125 -15.921875 C 31.28125 -10.140625 30.101562 -5.957031 27.75 -3.375 C 25.40625 -0.789062 21.597656 0.5 16.328125 0.5 C 10.816406 0.5 6.945312 -0.710938 4.71875 -3.140625 C 2.488281 -5.578125 1.375 -9.835938 1.375 -15.921875 C 1.375 -21.703125 2.546875 -25.875 4.890625 -28.4375 C 7.242188 -31.007812 11.054688 -32.296875 16.328125 -32.296875 C 21.835938 -32.296875 25.707031 -31.078125 27.9375 -28.640625 C 30.164062 -26.210938 31.28125 -21.972656 31.28125 -15.921875 Z M 10.296875 -9.125 C 10.734375 -8.28125 11.378906 -7.6875 12.234375 -7.34375 C 13.097656 -7.007812 14.460938 -6.84375 16.328125 -6.84375 C 18.179688 -6.84375 19.539062 -7.007812 20.40625 -7.34375 C 21.269531 -7.6875 21.921875 -8.28125 22.359375 -9.125 C 22.691406 -9.800781 22.9375 -10.679688 23.09375 -11.765625 C 23.25 -12.847656 23.328125 -14.234375 23.328125 -15.921875 C 23.328125 -17.640625 23.25 -19.046875 23.09375 -20.140625 C 22.9375 -21.242188 22.691406 -22.132812 22.359375 -22.8125 C 21.953125 -23.695312 21.316406 -24.316406 20.453125 -24.671875 C 19.597656 -25.023438 18.222656 -25.203125 16.328125 -25.203125 C 14.429688 -25.203125 13.050781 -25.023438 12.1875 -24.671875 C 11.332031 -24.316406 10.703125 -23.695312 10.296875 -22.8125 C 9.953125 -22.132812 9.703125 -21.242188 9.546875 -20.140625 C 9.398438 -19.046875 9.328125 -17.640625 9.328125 -15.921875 C 9.328125 -14.234375 9.398438 -12.847656 9.546875 -11.765625 C 9.703125 -10.679688 9.953125 -9.800781 10.296875 -9.125 Z M 10.296875 -9.125 "/></g></g></g><g fill="#2864b4" fill-opacity="1"><g transform="translate(185.286565, 107.453353)"><g><path d="M 16.21875 -6.84375 C 17.570312 -6.84375 19.039062 -6.984375 20.625 -7.265625 C 22.21875 -7.554688 23.640625 -7.941406 24.890625 -8.421875 L 24.890625 -1.46875 C 23.035156 -0.726562 21.363281 -0.21875 19.875 0.0625 C 18.382812 0.351562 16.828125 0.5 15.203125 0.5 C 12.265625 0.5 9.914062 0.164062 8.15625 -0.5 C 6.40625 -1.175781 5.003906 -2.257812 3.953125 -3.75 C 3.078125 -5.03125 2.425781 -6.664062 2 -8.65625 C 1.582031 -10.65625 1.375 -13.078125 1.375 -15.921875 C 1.375 -21.597656 2.597656 -25.742188 5.046875 -28.359375 C 7.492188 -30.984375 11.390625 -32.296875 16.734375 -32.296875 C 18.285156 -32.296875 19.671875 -32.257812 20.890625 -32.1875 C 22.109375 -32.125 23.207031 -32.007812 24.1875 -31.84375 L 24.1875 -25 C 23.070312 -25.0625 21.910156 -25.109375 20.703125 -25.140625 C 19.503906 -25.179688 18.179688 -25.203125 16.734375 -25.203125 C 14.867188 -25.203125 13.488281 -25.023438 12.59375 -24.671875 C 11.695312 -24.316406 11.03125 -23.695312 10.59375 -22.8125 C 10.1875 -22.132812 9.898438 -21.238281 9.734375 -20.125 C 9.566406 -19.007812 9.484375 -17.609375 9.484375 -15.921875 C 9.484375 -14.328125 9.554688 -13 9.703125 -11.9375 C 9.859375 -10.875 10.101562 -9.988281 10.4375 -9.28125 C 10.882812 -8.394531 11.53125 -7.765625 12.375 -7.390625 C 13.21875 -7.023438 14.5 -6.84375 16.21875 -6.84375 Z M 16.21875 -6.84375 "/></g></g></g><g fill="#2864b4" fill-opacity="1"><g transform="translate(211.038795, 107.453353)"><g><path d="M 19.109375 -16.375 L 31.03125 0 L 21.09375 0 L 12.421875 -12.984375 L 10.296875 -12.984375 L 10.296875 0 L 2.4375 0 L 2.4375 -31.796875 L 10.296875 -31.796875 L 10.296875 -19.265625 L 12.421875 -19.265625 L 21.1875 -31.796875 L 30.625 -31.796875 Z M 19.109375 -16.375 "/></g></g></g><g fill="#2864b4" fill-opacity="1"><g transform="translate(241.454813, 107.453353)"><g><path d="M 10.296875 -11.5625 L 10.296875 0 L 2.4375 0 L 2.4375 -31.796875 L 23.875 -31.796875 L 23.875 -24.6875 L 10.296875 -24.6875 L 10.296875 -18.15625 L 22 -18.15625 L 22 -11.5625 Z M 10.296875 -11.5625 "/></g></g></g><g fill="#2864b4" fill-opacity="1"><g transform="translate(266.243868, 107.453353)"><g><path d="M 24.34375 -7.359375 L 24.34375 0 L 2.4375 0 L 2.4375 -31.796875 L 23.875 -31.796875 L 23.875 -24.6875 L 10.296875 -24.6875 L 10.296875 -19.421875 L 22 -19.421875 L 22 -12.828125 L 10.296875 -12.828125 L 10.296875 -7.359375 Z M 24.34375 -7.359375 "/></g></g></g><g fill="#2864b4" fill-opacity="1"><g transform="translate(291.844023, 107.453353)"><g><path d="M 24.34375 -7.359375 L 24.34375 0 L 2.4375 0 L 2.4375 -31.796875 L 23.875 -31.796875 L 23.875 -24.6875 L 10.296875 -24.6875 L 10.296875 -19.421875 L 22 -19.421875 L 22 -12.828125 L 10.296875 -12.828125 L 10.296875 -7.359375 Z M 24.34375 -7.359375 "/></g></g></g><g fill="#2864b4" fill-opacity="1"><g transform="translate(317.444179, 107.453353)"><g><path d="M 13.53125 0 L 2.4375 0 L 2.4375 -31.796875 L 13.53125 -31.796875 C 16.78125 -31.796875 19.359375 -31.523438 21.265625 -30.984375 C 23.179688 -30.441406 24.710938 -29.578125 25.859375 -28.390625 C 27.003906 -27.210938 27.835938 -25.613281 28.359375 -23.59375 C 28.890625 -21.582031 29.15625 -19.023438 29.15625 -15.921875 C 29.15625 -10.410156 27.921875 -6.378906 25.453125 -3.828125 C 22.984375 -1.273438 19.007812 0 13.53125 0 Z M 19.78125 -22.671875 C 19.300781 -23.378906 18.601562 -23.890625 17.6875 -24.203125 C 16.78125 -24.523438 15.394531 -24.6875 13.53125 -24.6875 L 10.296875 -24.6875 L 10.296875 -7.359375 L 13.53125 -7.359375 C 15.363281 -7.359375 16.734375 -7.507812 17.640625 -7.8125 C 18.554688 -8.113281 19.269531 -8.601562 19.78125 -9.28125 C 20.21875 -9.914062 20.535156 -10.765625 20.734375 -11.828125 C 20.941406 -12.898438 21.046875 -14.265625 21.046875 -15.921875 C 21.046875 -17.609375 20.941406 -18.984375 20.734375 -20.046875 C 20.535156 -21.117188 20.21875 -21.992188 19.78125 -22.671875 Z M 19.78125 -22.671875 "/></g></g></g><g fill="#2864b4" fill-opacity="1"><g transform="translate(103.902404, 124.909376)"><g><path d="M 3.453125 -7.28125 C 4.191406 -7.28125 4.828125 -7.144531 5.359375 -6.875 C 5.890625 -6.613281 6.296875 -6.210938 6.578125 -5.671875 C 6.867188 -5.140625 7.015625 -4.460938 7.015625 -3.640625 C 7.015625 -2.828125 6.867188 -2.148438 6.578125 -1.609375 C 6.296875 -1.066406 5.890625 -0.660156 5.359375 -0.390625 C 4.828125 -0.128906 4.191406 0 3.453125 0 L 1.09375 0 L 1.09375 -7.28125 Z M 3.375 -0.734375 C 3.976562 -0.734375 4.476562 -0.828125 4.875 -1.015625 C 5.28125 -1.203125 5.582031 -1.507812 5.78125 -1.9375 C 5.988281 -2.363281 6.09375 -2.929688 6.09375 -3.640625 C 6.09375 -4.347656 5.988281 -4.914062 5.78125 -5.34375 C 5.582031 -5.769531 5.28125 -6.078125 4.875 -6.265625 C 4.476562 -6.460938 3.976562 -6.5625 3.375 -6.5625 L 1.953125 -6.5625 L 1.953125 -0.734375 Z M 3.375 -0.734375 "/></g></g></g><g fill="#2864b4" fill-opacity="1"><g transform="translate(115.250756, 124.909376)"><g><path d="M 1.953125 -3.4375 L 1.953125 -0.703125 L 5.671875 -0.703125 L 5.671875 0 L 1.09375 0 L 1.09375 -7.28125 L 5.59375 -7.28125 L 5.59375 -6.578125 L 1.953125 -6.578125 L 1.953125 -4.140625 L 5.15625 -4.140625 L 5.15625 -3.4375 Z M 1.953125 -3.4375 "/></g></g></g><g fill="#2864b4" fill-opacity="1"><g transform="translate(125.010631, 124.909376)"><g><path d="M 4.03125 0.109375 C 3.382812 0.109375 2.8125 -0.0351562 2.3125 -0.328125 C 1.820312 -0.617188 1.4375 -1.046875 1.15625 -1.609375 C 0.875 -2.179688 0.734375 -2.859375 0.734375 -3.640625 C 0.734375 -4.429688 0.875 -5.109375 1.15625 -5.671875 C 1.4375 -6.234375 1.820312 -6.660156 2.3125 -6.953125 C 2.8125 -7.242188 3.382812 -7.390625 4.03125 -7.390625 C 4.707031 -7.390625 5.269531 -7.257812 5.71875 -7 C 6.175781 -6.738281 6.503906 -6.351562 6.703125 -5.84375 L 6.15625 -5.46875 L 6.03125 -5.46875 C 5.832031 -5.882812 5.570312 -6.179688 5.25 -6.359375 C 4.925781 -6.535156 4.519531 -6.625 4.03125 -6.625 C 3.570312 -6.625 3.160156 -6.519531 2.796875 -6.3125 C 2.441406 -6.113281 2.160156 -5.789062 1.953125 -5.34375 C 1.742188 -4.894531 1.640625 -4.328125 1.640625 -3.640625 C 1.640625 -2.953125 1.742188 -2.382812 1.953125 -1.9375 C 2.160156 -1.5 2.441406 -1.175781 2.796875 -0.96875 C 3.160156 -0.769531 3.570312 -0.671875 4.03125 -0.671875 C 4.550781 -0.671875 4.976562 -0.785156 5.3125 -1.015625 C 5.65625 -1.253906 5.90625 -1.640625 6.0625 -2.171875 L 6.1875 -2.171875 L 6.765625 -1.890625 C 6.585938 -1.242188 6.265625 -0.75 5.796875 -0.40625 C 5.335938 -0.0625 4.75 0.109375 4.03125 0.109375 Z M 4.03125 0.109375 "/></g></g></g><g fill="#2864b4" fill-opacity="1"><g transform="translate(135.761436, 124.909376)"><g><path d="M 1.953125 -3.4375 L 1.953125 -0.703125 L 5.671875 -0.703125 L 5.671875 0 L 1.09375 0 L 1.09375 -7.28125 L 5.59375 -7.28125 L 5.59375 -6.578125 L 1.953125 -6.578125 L 1.953125 -4.140625 L 5.15625 -4.140625 L 5.15625 -3.4375 Z M 1.953125 -3.4375 "/></g></g></g><g fill="#2864b4" fill-opacity="1"><g transform="translate(145.521313, 124.909376)"><g><path d="M 1.9375 0 L 1.09375 0 L 1.09375 -7.28125 L 2.15625 -7.28125 L 5.703125 -1.71875 L 5.828125 -1.734375 L 5.828125 -7.28125 L 6.65625 -7.28125 L 6.65625 0 L 5.765625 0 L 2.0625 -5.953125 L 1.9375 -5.9375 Z M 1.9375 0 "/></g></g></g><g fill="#2864b4" fill-opacity="1"><g transform="translate(156.894563, 124.909376)"><g><path d="M 5.6875 -7.28125 L 5.6875 -6.5625 L 3.40625 -6.5625 L 3.40625 0 L 2.546875 0 L 2.546875 -6.5625 L 0.265625 -6.5625 L 0.265625 -7.28125 Z M 5.6875 -7.28125 "/></g></g></g><g fill="#2864b4" fill-opacity="1"><g transform="translate(166.450274, 124.909376)"><g><path d="M 1.09375 0 L 1.09375 -7.28125 L 3.75 -7.28125 C 4.238281 -7.28125 4.644531 -7.195312 4.96875 -7.03125 C 5.300781 -6.875 5.550781 -6.648438 5.71875 -6.359375 C 5.882812 -6.066406 5.96875 -5.71875 5.96875 -5.3125 C 5.96875 -4.863281 5.851562 -4.488281 5.625 -4.1875 C 5.40625 -3.894531 5.054688 -3.675781 4.578125 -3.53125 L 4.578125 -3.4375 C 4.816406 -3.34375 5.007812 -3.191406 5.15625 -2.984375 C 5.300781 -2.785156 5.4375 -2.492188 5.5625 -2.109375 L 6.25 0 L 5.359375 0 L 4.640625 -2.234375 C 4.546875 -2.492188 4.441406 -2.695312 4.328125 -2.84375 C 4.222656 -2.988281 4.082031 -3.09375 3.90625 -3.15625 C 3.726562 -3.226562 3.507812 -3.265625 3.25 -3.265625 L 1.953125 -3.265625 L 1.953125 0 Z M 3.71875 -4 C 4.175781 -4 4.515625 -4.101562 4.734375 -4.3125 C 4.960938 -4.519531 5.078125 -4.84375 5.078125 -5.28125 C 5.078125 -5.707031 4.960938 -6.023438 4.734375 -6.234375 C 4.515625 -6.453125 4.175781 -6.5625 3.71875 -6.5625 L 1.953125 -6.5625 L 1.953125 -4 Z M 3.71875 -4 "/></g></g></g><g fill="#2864b4" fill-opacity="1"><g transform="translate(176.802717, 124.909376)"><g><path d="M 6.5625 0 L 5.640625 0 L 4.96875 -2 L 1.859375 -2 L 1.1875 0 L 0.28125 0 L 2.828125 -7.28125 L 4.015625 -7.28125 Z M 3.359375 -6.40625 L 2.109375 -2.71875 L 4.71875 -2.71875 L 3.484375 -6.40625 Z M 3.359375 -6.40625 "/></g></g></g><g fill="#2864b4" fill-opacity="1"><g transform="translate(187.254751, 124.909376)"><g><path d="M 1.953125 -7.28125 L 1.953125 -0.703125 L 5.46875 -0.703125 L 5.46875 0 L 1.09375 0 L 1.09375 -7.28125 Z M 1.953125 -7.28125 "/></g></g></g><g fill="#2864b4" fill-opacity="1"><g transform="translate(196.636181, 124.909376)"><g><path d="M 1.953125 0 L 1.09375 0 L 1.09375 -7.28125 L 1.953125 -7.28125 Z M 1.953125 0 "/></g></g></g><g fill="#2864b4" fill-opacity="1"><g transform="translate(203.308738, 124.909376)"><g><path d="M 5.390625 0 L 0.390625 0 L 0.390625 -0.765625 L 4.390625 -6.46875 L 4.359375 -6.578125 L 0.546875 -6.578125 L 0.546875 -7.28125 L 5.359375 -7.28125 L 5.359375 -6.515625 L 1.359375 -0.8125 L 1.390625 -0.703125 L 5.390625 -0.703125 Z M 5.390625 0 "/></g></g></g><g fill="#2864b4" fill-opacity="1"><g transform="translate(212.700121, 124.909376)"><g><path d="M 1.953125 -3.4375 L 1.953125 -0.703125 L 5.671875 -0.703125 L 5.671875 0 L 1.09375 0 L 1.09375 -7.28125 L 5.59375 -7.28125 L 5.59375 -6.578125 L 1.953125 -6.578125 L 1.953125 -4.140625 L 5.15625 -4.140625 L 5.15625 -3.4375 Z M 1.953125 -3.4375 "/></g></g></g><g fill="#2864b4" fill-opacity="1"><g transform="translate(222.459997, 124.909376)"><g><path d="M 3.453125 -7.28125 C 4.191406 -7.28125 4.828125 -7.144531 5.359375 -6.875 C 5.890625 -6.613281 6.296875 -6.210938 6.578125 -5.671875 C 6.867188 -5.140625 7.015625 -4.460938 7.015625 -3.640625 C 7.015625 -2.828125 6.867188 -2.148438 6.578125 -1.609375 C 6.296875 -1.066406 5.890625 -0.660156 5.359375 -0.390625 C 4.828125 -0.128906 4.191406 0 3.453125 0 L 1.09375 0 L 1.09375 -7.28125 Z M 3.375 -0.734375 C 3.976562 -0.734375 4.476562 -0.828125 4.875 -1.015625 C 5.28125 -1.203125 5.582031 -1.507812 5.78125 -1.9375 C 5.988281 -2.363281 6.09375 -2.929688 6.09375 -3.640625 C 6.09375 -4.347656 5.988281 -4.914062 5.78125 -5.34375 C 5.582031 -5.769531 5.28125 -6.078125 4.875 -6.265625 C 4.476562 -6.460938 3.976562 -6.5625 3.375 -6.5625 L 1.953125 -6.5625 L 1.953125 -0.734375 Z M 3.375 -0.734375 "/></g></g></g><g fill="#2864b4" fill-opacity="1"><g transform="translate(233.80835, 124.909376)"><g/></g></g><g fill="#2864b4" fill-opacity="1"><g transform="translate(239.918217, 124.909376)"><g><path d="M 3.1875 0.109375 C 2.726562 0.109375 2.316406 0.046875 1.953125 -0.078125 C 1.585938 -0.203125 1.28125 -0.363281 1.03125 -0.5625 C 0.789062 -0.769531 0.613281 -0.992188 0.5 -1.234375 L 0.96875 -1.8125 L 1.09375 -1.8125 C 1.539062 -1.050781 2.238281 -0.671875 3.1875 -0.671875 C 3.726562 -0.671875 4.132812 -0.785156 4.40625 -1.015625 C 4.675781 -1.242188 4.8125 -1.5625 4.8125 -1.96875 C 4.8125 -2.207031 4.765625 -2.410156 4.671875 -2.578125 C 4.585938 -2.742188 4.441406 -2.882812 4.234375 -3 C 4.035156 -3.113281 3.757812 -3.21875 3.40625 -3.3125 L 2.5625 -3.515625 C 1.925781 -3.671875 1.457031 -3.914062 1.15625 -4.25 C 0.851562 -4.582031 0.703125 -5.003906 0.703125 -5.515625 C 0.703125 -5.878906 0.796875 -6.203125 0.984375 -6.484375 C 1.171875 -6.765625 1.441406 -6.984375 1.796875 -7.140625 C 2.160156 -7.304688 2.59375 -7.390625 3.09375 -7.390625 C 3.632812 -7.390625 4.09375 -7.3125 4.46875 -7.15625 C 4.851562 -7 5.15625 -6.769531 5.375 -6.46875 L 4.96875 -5.90625 L 4.84375 -5.90625 C 4.632812 -6.15625 4.382812 -6.335938 4.09375 -6.453125 C 3.8125 -6.578125 3.476562 -6.640625 3.09375 -6.640625 C 2.582031 -6.640625 2.195312 -6.539062 1.9375 -6.34375 C 1.6875 -6.144531 1.5625 -5.875 1.5625 -5.53125 C 1.5625 -5.207031 1.65625 -4.945312 1.84375 -4.75 C 2.03125 -4.550781 2.347656 -4.398438 2.796875 -4.296875 L 3.671875 -4.09375 C 4.378906 -3.925781 4.890625 -3.671875 5.203125 -3.328125 C 5.523438 -2.984375 5.6875 -2.539062 5.6875 -2 C 5.6875 -1.59375 5.59375 -1.226562 5.40625 -0.90625 C 5.21875 -0.59375 4.9375 -0.34375 4.5625 -0.15625 C 4.1875 0.0195312 3.726562 0.109375 3.1875 0.109375 Z M 3.1875 0.109375 "/></g></g></g><g fill="#2864b4" fill-opacity="1"><g transform="translate(249.767725, 124.909376)"><g><path d="M 4 0.109375 C 3.363281 0.109375 2.800781 -0.0234375 2.3125 -0.296875 C 1.820312 -0.578125 1.4375 -0.992188 1.15625 -1.546875 C 0.875 -2.109375 0.734375 -2.804688 0.734375 -3.640625 C 0.734375 -4.472656 0.875 -5.171875 1.15625 -5.734375 C 1.4375 -6.296875 1.820312 -6.710938 2.3125 -6.984375 C 2.800781 -7.253906 3.363281 -7.390625 4 -7.390625 C 4.625 -7.390625 5.179688 -7.253906 5.671875 -6.984375 C 6.171875 -6.710938 6.5625 -6.296875 6.84375 -5.734375 C 7.125 -5.171875 7.265625 -4.472656 7.265625 -3.640625 C 7.265625 -2.804688 7.125 -2.109375 6.84375 -1.546875 C 6.5625 -0.992188 6.171875 -0.578125 5.671875 -0.296875 C 5.179688 -0.0234375 4.625 0.109375 4 0.109375 Z M 4 -0.6875 C 4.75 -0.6875 5.328125 -0.921875 5.734375 -1.390625 C 6.140625 -1.867188 6.34375 -2.617188 6.34375 -3.640625 C 6.34375 -4.660156 6.140625 -5.40625 5.734375 -5.875 C 5.328125 -6.351562 4.75 -6.59375 4 -6.59375 C 2.425781 -6.59375 1.640625 -5.609375 1.640625 -3.640625 C 1.640625 -1.671875 2.425781 -0.6875 4 -0.6875 Z M 4 -0.6875 "/></g></g></g><g fill="#2864b4" fill-opacity="1"><g transform="translate(261.365055, 124.909376)"><g><path d="M 4.03125 0.109375 C 3.382812 0.109375 2.8125 -0.0351562 2.3125 -0.328125 C 1.820312 -0.617188 1.4375 -1.046875 1.15625 -1.609375 C 0.875 -2.179688 0.734375 -2.859375 0.734375 -3.640625 C 0.734375 -4.429688 0.875 -5.109375 1.15625 -5.671875 C 1.4375 -6.234375 1.820312 -6.660156 2.3125 -6.953125 C 2.8125 -7.242188 3.382812 -7.390625 4.03125 -7.390625 C 4.707031 -7.390625 5.269531 -7.257812 5.71875 -7 C 6.175781 -6.738281 6.503906 -6.351562 6.703125 -5.84375 L 6.15625 -5.46875 L 6.03125 -5.46875 C 5.832031 -5.882812 5.570312 -6.179688 5.25 -6.359375 C 4.925781 -6.535156 4.519531 -6.625 4.03125 -6.625 C 3.570312 -6.625 3.160156 -6.519531 2.796875 -6.3125 C 2.441406 -6.113281 2.160156 -5.789062 1.953125 -5.34375 C 1.742188 -4.894531 1.640625 -4.328125 1.640625 -3.640625 C 1.640625 -2.953125 1.742188 -2.382812 1.953125 -1.9375 C 2.160156 -1.5 2.441406 -1.175781 2.796875 -0.96875 C 3.160156 -0.769531 3.570312 -0.671875 4.03125 -0.671875 C 4.550781 -0.671875 4.976562 -0.785156 5.3125 -1.015625 C 5.65625 -1.253906 5.90625 -1.640625 6.0625 -2.171875 L 6.1875 -2.171875 L 6.765625 -1.890625 C 6.585938 -1.242188 6.265625 -0.75 5.796875 -0.40625 C 5.335938 -0.0625 4.75 0.109375 4.03125 0.109375 Z M 4.03125 0.109375 "/></g></g></g><g fill="#2864b4" fill-opacity="1"><g transform="translate(272.115861, 124.909376)"><g><path d="M 1.953125 0 L 1.09375 0 L 1.09375 -7.28125 L 1.953125 -7.28125 Z M 1.953125 0 "/></g></g></g><g fill="#2864b4" fill-opacity="1"><g transform="translate(278.788418, 124.909376)"><g><path d="M 6.5625 0 L 5.640625 0 L 4.96875 -2 L 1.859375 -2 L 1.1875 0 L 0.28125 0 L 2.828125 -7.28125 L 4.015625 -7.28125 Z M 3.359375 -6.40625 L 2.109375 -2.71875 L 4.71875 -2.71875 L 3.484375 -6.40625 Z M 3.359375 -6.40625 "/></g></g></g><g fill="#2864b4" fill-opacity="1"><g transform="translate(289.240451, 124.909376)"><g><path d="M 1.953125 -7.28125 L 1.953125 -0.703125 L 5.46875 -0.703125 L 5.46875 0 L 1.09375 0 L 1.09375 -7.28125 Z M 1.953125 -7.28125 "/></g></g></g><g fill="#2864b4" fill-opacity="1"><g transform="translate(298.621882, 124.909376)"><g/></g></g><g fill="#2864b4" fill-opacity="1"><g transform="translate(304.731749, 124.909376)"><g><path d="M 1.890625 0 L 1.09375 0 L 1.09375 -7.28125 L 2.375 -7.28125 L 4.578125 -1.109375 L 4.6875 -1.109375 L 6.890625 -7.28125 L 8.109375 -7.28125 L 8.109375 0 L 7.296875 0 L 7.296875 -5.9375 L 7.171875 -5.96875 L 5.03125 0 L 4.171875 0 L 2.015625 -5.96875 L 1.890625 -5.9375 Z M 1.890625 0 "/></g></g></g><g fill="#2864b4" fill-opacity="1"><g transform="translate(317.559027, 124.909376)"><g><path d="M 1.953125 -3.4375 L 1.953125 -0.703125 L 5.671875 -0.703125 L 5.671875 0 L 1.09375 0 L 1.09375 -7.28125 L 5.59375 -7.28125 L 5.59375 -6.578125 L 1.953125 -6.578125 L 1.953125 -4.140625 L 5.15625 -4.140625 L 5.15625 -3.4375 Z M 1.953125 -3.4375 "/></g></g></g><g fill="#2864b4" fill-opacity="1"><g transform="translate(327.318904, 124.909376)"><g><path d="M 3.453125 -7.28125 C 4.191406 -7.28125 4.828125 -7.144531 5.359375 -6.875 C 5.890625 -6.613281 6.296875 -6.210938 6.578125 -5.671875 C 6.867188 -5.140625 7.015625 -4.460938 7.015625 -3.640625 C 7.015625 -2.828125 6.867188 -2.148438 6.578125 -1.609375 C 6.296875 -1.066406 5.890625 -0.660156 5.359375 -0.390625 C 4.828125 -0.128906 4.191406 0 3.453125 0 L 1.09375 0 L 1.09375 -7.28125 Z M 3.375 -0.734375 C 3.976562 -0.734375 4.476562 -0.828125 4.875 -1.015625 C 5.28125 -1.203125 5.582031 -1.507812 5.78125 -1.9375 C 5.988281 -2.363281 6.09375 -2.929688 6.09375 -3.640625 C 6.09375 -4.347656 5.988281 -4.914062 5.78125 -5.34375 C 5.582031 -5.769531 5.28125 -6.078125 4.875 -6.265625 C 4.476562 -6.460938 3.976562 -6.5625 3.375 -6.5625 L 1.953125 -6.5625 L 1.953125 -0.734375 Z M 3.375 -0.734375 "/></g></g></g><g fill="#2864b4" fill-opacity="1"><g transform="translate(338.667243, 124.909376)"><g><path d="M 1.953125 0 L 1.09375 0 L 1.09375 -7.28125 L 1.953125 -7.28125 Z M 1.953125 0 "/></g></g></g><g fill="#2864b4" fill-opacity="1"><g transform="translate(345.339787, 124.909376)"><g><path d="M 6.5625 0 L 5.640625 0 L 4.96875 -2 L 1.859375 -2 L 1.1875 0 L 0.28125 0 L 2.828125 -7.28125 L 4.015625 -7.28125 Z M 3.359375 -6.40625 L 2.109375 -2.71875 L 4.71875 -2.71875 L 3.484375 -6.40625 Z M 3.359375 -6.40625 "/></g></g></g></svg>