<svg xmlns="http://www.w3.org/2000/svg" xmlns:xlink="http://www.w3.org/1999/xlink" width="500" zoomAndPan="magnify" viewBox="0 0 375 374.999991" height="500" preserveAspectRatio="xMidYMid meet" version="1.0"><defs><clipPath id="775478dd92"><path d="M 75.335938 160.667969 L 147.40625 160.667969 L 147.40625 232.742188 L 75.335938 232.742188 Z M 75.335938 160.667969 " clip-rule="nonzero"/></clipPath><clipPath id="66cb8da0ea"><path d="M 80.585938 160.667969 L 142.15625 160.667969 C 145.054688 160.667969 147.40625 163.019531 147.40625 165.917969 L 147.40625 227.492188 C 147.40625 230.390625 145.054688 232.742188 142.15625 232.742188 L 80.585938 232.742188 C 77.683594 232.742188 75.335938 230.390625 75.335938 227.492188 L 75.335938 165.917969 C 75.335938 163.019531 77.683594 160.667969 80.585938 160.667969 " clip-rule="nonzero"/></clipPath><clipPath id="9d16350b5e"><path d="M 227.59375 156.246094 L 299.664062 156.246094 L 299.664062 228.316406 L 227.59375 228.316406 Z M 227.59375 156.246094 " clip-rule="nonzero"/></clipPath><clipPath id="d319a8fc1d"><path d="M 294.414062 228.316406 L 232.84375 228.316406 C 229.941406 228.316406 227.59375 225.964844 227.59375 223.066406 L 227.59375 161.496094 C 227.59375 158.597656 229.941406 156.246094 232.84375 156.246094 L 294.414062 156.246094 C 297.3125 156.246094 299.664062 158.597656 299.664062 161.496094 L 299.664062 223.066406 C 299.664062 225.964844 297.3125 228.316406 294.414062 228.316406 " clip-rule="nonzero"/></clipPath><clipPath id="5c5e6e49ca"><path d="M 165.558594 18.476562 L 274.410156 18.476562 L 274.410156 127.328125 L 165.558594 127.328125 Z M 165.558594 18.476562 " clip-rule="nonzero"/></clipPath><clipPath id="cd42e23238"><path d="M 170.808594 18.476562 L 269.160156 18.476562 C 270.554688 18.476562 271.886719 19.03125 272.871094 20.015625 C 273.855469 21 274.410156 22.335938 274.410156 23.726562 L 274.410156 122.078125 C 274.410156 123.472656 273.855469 124.808594 272.871094 125.792969 C 271.886719 126.777344 270.554688 127.328125 269.160156 127.328125 L 170.808594 127.328125 C 169.414062 127.328125 168.078125 126.777344 167.09375 125.792969 C 166.109375 124.808594 165.558594 123.472656 165.558594 122.078125 L 165.558594 23.726562 C 165.558594 22.335938 166.109375 21 167.09375 20.015625 C 168.078125 19.03125 169.414062 18.476562 170.808594 18.476562 " clip-rule="nonzero"/></clipPath><clipPath id="0ca73dec00"><path d="M 96.972656 247.660156 L 205.824219 247.660156 L 205.824219 356.515625 L 96.972656 356.515625 Z M 96.972656 247.660156 " clip-rule="nonzero"/></clipPath><clipPath id="361ee83888"><path d="M 200.574219 356.515625 L 102.222656 356.515625 C 100.828125 356.515625 99.496094 355.960938 98.511719 354.976562 C 97.523438 353.992188 96.972656 352.65625 96.972656 351.265625 L 96.972656 252.910156 C 96.972656 251.519531 97.523438 250.183594 98.511719 249.199219 C 99.496094 248.214844 100.828125 247.660156 102.222656 247.660156 L 200.574219 247.660156 C 201.96875 247.660156 203.304688 248.214844 204.289062 249.199219 C 205.273438 250.183594 205.824219 251.519531 205.824219 252.910156 L 205.824219 351.265625 C 205.824219 352.65625 205.273438 353.992188 204.289062 354.976562 C 203.304688 355.960938 201.96875 356.515625 200.574219 356.515625 " clip-rule="nonzero"/></clipPath></defs><g clip-path="url(#775478dd92)"><g clip-path="url(#66cb8da0ea)"><path fill="#f51997" d="M 75.335938 160.667969 L 147.40625 160.667969 L 147.40625 232.742188 L 75.335938 232.742188 Z M 75.335938 160.667969 " fill-opacity="1" fill-rule="nonzero"/></g></g><g clip-path="url(#9d16350b5e)"><g clip-path="url(#d319a8fc1d)"><path fill="#f51997" d="M 299.664062 228.316406 L 227.59375 228.316406 L 227.59375 156.246094 L 299.664062 156.246094 Z M 299.664062 228.316406 " fill-opacity="1" fill-rule="nonzero"/></g></g><g clip-path="url(#5c5e6e49ca)"><g clip-path="url(#cd42e23238)"><path fill="#f51997" d="M 165.558594 18.476562 L 274.410156 18.476562 L 274.410156 127.328125 L 165.558594 127.328125 Z M 165.558594 18.476562 " fill-opacity="1" fill-rule="nonzero"/></g></g><g clip-path="url(#0ca73dec00)"><g clip-path="url(#361ee83888)"><path fill="#f51997" d="M 205.824219 356.515625 L 96.972656 356.515625 L 96.972656 247.660156 L 205.824219 247.660156 Z M 205.824219 356.515625 " fill-opacity="1" fill-rule="nonzero"/></g></g><path stroke-linecap="butt" transform="matrix(0.534588, -0.534588, 0.53033, 0.53033, 129.216764, 168.868364)" fill="none" stroke-linejoin="miter" d="M -0.000695539 8.997961 L 50.596784 9.001644 " stroke="#f51997" stroke-width="18" stroke-opacity="1" stroke-miterlimit="4"/><path stroke-linecap="butt" transform="matrix(-0.530803, 0.534567, -0.5322, -0.528454, 248.166492, 215.863551)" fill="none" stroke-linejoin="miter" d="M 0.00337801 8.99981 L 59.735411 9.001813 " stroke="#f51997" stroke-width="18" stroke-opacity="1" stroke-miterlimit="4"/></svg>